<svg xmlns="http://www.w3.org/2000/svg" xmlns:xlink="http://www.w3.org/1999/xlink" viewBox="0 0 71.12 73.52"><defs><style>.cls-1{fill:#0c2e46;}.cls-2{clip-path:url(#clip-path);}</style><clipPath id="clip-path" transform="translate(0.79 0.79)"><path class="cls-1" d="M20.68,42.67H66.85V48.2H40.92a1.41,1.41,0,1,0,0,2.81H66.85V67.62a1.62,1.62,0,0,1-1.62,1.62H22.3a1.62,1.62,0,0,1-1.62-1.62V51h7.61a1.41,1.41,0,1,0,0-2.81H20.68Zm15.06-5.33a2.17,2.17,0,0,0,.35-.07,3.31,3.31,0,0,0,2-1.78c1-1.78.57-4.68-.75-7a8,8,0,0,1,12.66,9.37,8.28,8.28,0,0,1-1.51,2h-11a8.18,8.18,0,0,1-1.76-2.52M31,21.41l0,0a3.8,3.8,0,0,1,.79-.21c3.69-.61,4.75.43,6.47,3.29a11.24,11.24,0,0,0-2.57,1.8Zm2.79,12.48-9.23-5.76a24.58,24.58,0,0,0-2.44-1.3,10.7,10.7,0,0,1-5.4-4.68,11.5,11.5,0,0,0-4.11-4l4.83-9.1,1.25.68c3.83,2.1,5.26,2.89,11,3.57.78.1,1.56.17,2.31.25,5,.49,9,.88,11.34,5.3l0,0,2.78,4.91A10.73,10.73,0,0,0,41,23.53c-2.05-3.49-4-6.1-9.67-5.14-1.71.29-2.77,1-3.15,2a2.8,2.8,0,0,0,.74,2.86l.06.07L34,28.64c1.62,1.68,2.14,4.55,1.62,5.53-.16.29-.28.38-.31.39h-.06a3.57,3.57,0,0,1-1.51-.67m-26-14.13L3.2,17.34h0a.7.7,0,0,1-.35-.43.74.74,0,0,1,0-.55l7-13.16a.7.7,0,0,1,.43-.35.58.58,0,0,1,.21,0,.76.76,0,0,1,.34.08l4.55,2.42a.71.71,0,0,1,.34.43.69.69,0,0,1,0,.55l-7,13.16a.74.74,0,0,1-.65.38.8.8,0,0,1-.33-.08M9.49.16A3.53,3.53,0,0,0,7.4,1.88L.41,15a3.5,3.5,0,0,0-.25,2.69,3.44,3.44,0,0,0,1.72,2.09l4.54,2.42a3.53,3.53,0,0,0,4.79-1.46l.06-.13a8.36,8.36,0,0,1,3,3,13.46,13.46,0,0,0,6.58,5.74,19.75,19.75,0,0,1,2.17,1.15l9.23,5.75.21.13a10.77,10.77,0,0,0,1.4,3.46H19.27a1.4,1.4,0,0,0-1.4,1.4V67.62a4.43,4.43,0,0,0,4.43,4.44H65.23a4.43,4.43,0,0,0,4.43-4.44V41.26a1.4,1.4,0,0,0-1.4-1.4H52.14c.14-.23.27-.45.39-.69a10.78,10.78,0,0,0-1.21-11.92L45.8,17.51c-3.09-5.72-8.4-6.25-13.54-6.75L30,10.52C24.82,9.9,23.8,9.34,20,7.27l-1.46-.79a3.44,3.44,0,0,0-.12-1.56,3.48,3.48,0,0,0-1.71-2.08L12.19.41A3.57,3.57,0,0,0,10.54,0a3.48,3.48,0,0,0-1,.16"/></clipPath></defs><g id="Шар_2" data-name="Шар 2"><g id="Layer_1" data-name="Layer 1"><path class="cls-1" d="M20.68,42.67H66.85V48.2H40.92a1.41,1.41,0,1,0,0,2.81H66.85V67.62a1.62,1.62,0,0,1-1.62,1.62H22.3a1.62,1.62,0,0,1-1.62-1.62V51h7.61a1.41,1.41,0,1,0,0-2.81H20.68Zm15.06-5.33a2.17,2.17,0,0,0,.35-.07,3.31,3.31,0,0,0,2-1.78c1-1.78.57-4.68-.75-7a8,8,0,0,1,12.66,9.37,8.28,8.28,0,0,1-1.51,2h-11a8.18,8.18,0,0,1-1.76-2.52M31,21.41l0,0a3.8,3.8,0,0,1,.79-.21c3.69-.61,4.75.43,6.47,3.29a11.24,11.24,0,0,0-2.57,1.8Zm2.79,12.48-9.23-5.76a24.58,24.58,0,0,0-2.44-1.3,10.7,10.7,0,0,1-5.4-4.68,11.5,11.5,0,0,0-4.11-4l4.83-9.1,1.25.68c3.83,2.1,5.26,2.89,11,3.57.78.1,1.56.17,2.31.25,5,.49,9,.88,11.34,5.3l0,0,2.78,4.91A10.73,10.73,0,0,0,41,23.53c-2.05-3.49-4-6.1-9.67-5.14-1.71.29-2.77,1-3.15,2a2.8,2.8,0,0,0,.74,2.86l.06.07L34,28.64c1.62,1.68,2.14,4.55,1.62,5.53-.16.29-.28.38-.31.39h-.06a3.57,3.57,0,0,1-1.51-.67m-26-14.13L3.2,17.34h0a.7.7,0,0,1-.35-.43.74.74,0,0,1,0-.55l7-13.16a.7.7,0,0,1,.43-.35.58.58,0,0,1,.21,0,.76.76,0,0,1,.34.08l4.55,2.42a.71.71,0,0,1,.34.43.69.69,0,0,1,0,.55l-7,13.16a.74.74,0,0,1-.65.38.8.8,0,0,1-.33-.08M9.49.16A3.53,3.53,0,0,0,7.4,1.88L.41,15a3.5,3.5,0,0,0-.25,2.69,3.44,3.44,0,0,0,1.72,2.09l4.54,2.42a3.53,3.53,0,0,0,4.79-1.46l.06-.13a8.36,8.36,0,0,1,3,3,13.46,13.46,0,0,0,6.58,5.74,19.75,19.75,0,0,1,2.17,1.15l9.23,5.75.21.13a10.77,10.77,0,0,0,1.4,3.46H19.27a1.4,1.4,0,0,0-1.4,1.4V67.62a4.43,4.43,0,0,0,4.43,4.44H65.23a4.43,4.43,0,0,0,4.43-4.44V41.26a1.4,1.4,0,0,0-1.4-1.4H52.14c.14-.23.27-.45.39-.69a10.78,10.78,0,0,0-1.21-11.92L45.8,17.51c-3.09-5.72-8.4-6.25-13.54-6.75L30,10.52C24.82,9.9,23.8,9.34,20,7.27l-1.46-.79a3.44,3.44,0,0,0-.12-1.56,3.48,3.48,0,0,0-1.71-2.08L12.19.41A3.57,3.57,0,0,0,10.54,0a3.48,3.48,0,0,0-1,.16" transform="translate(0.79 0.79)"/><g class="cls-2"><rect class="cls-1" width="71.12" height="73.52"/></g></g></g></svg>