<svg xmlns="http://www.w3.org/2000/svg" xmlns:xlink="http://www.w3.org/1999/xlink" viewBox="0 0 1101.66 1054.21"><defs><style>.cls-1{fill:#0c2e46;}.cls-2{clip-path:url(#clip-path);}.cls-3{clip-path:url(#clip-path-2);}.cls-4{clip-path:url(#clip-path-3);}.cls-5{clip-path:url(#clip-path-4);}</style><clipPath id="clip-path" transform="translate(12.3 9.61)"><path class="cls-1" d="M183.65,982.19V905.76A10.88,10.88,0,0,1,194.39,895h242a10.88,10.88,0,0,1,10.74,10.73v76.43a10.75,10.75,0,0,1-10.74,10.73h-242a10.88,10.88,0,0,1-10.74-10.73M91.43,195.83c-37.85,0-68.37,29.9-71,69.59l-7.5,111.71a21,21,0,1,0,42,2.82l7.51-111.72C63.54,250.94,76,237.9,91.44,237.9h0c17.5,0,27.85,15.49,29.05,30.73L133.6,437.36a73.84,73.84,0,0,0-13.09,6.36A73,73,0,0,0,96.64,544l88.79,144.15a21,21,0,0,0,35.83-22.07L132.48,521.92a30.74,30.74,0,0,1,33.34-46,30.45,30.45,0,0,1,19.07,13.79l54.79,88.92c11,17.88,19.17,21.64,35.21,26l1.39.37c83.51,22.53,110.27,63.28,124.75,117.5,8,30.16,8.78,61.2,9.49,91.23V853H220.27v-3.17c0-65-64.14-119.82-106.58-156.11-6.36-5.44-12.37-10.57-17.2-14.93l-.81-.75c-39.33-35.67-55.61-50.45-53.42-110.25a21,21,0,0,0-42-1.54c-2.9,79.37,25,104.67,67.2,143l.82.75c5.29,4.78,11.51,10.1,18.11,15.75,36.58,31.25,91.85,78.49,91.85,124.12v5.72a52.9,52.9,0,0,0-36.62,50.25v76.43A52.88,52.88,0,0,0,194.39,1035h242a52.88,52.88,0,0,0,52.82-52.81V905.75a52.92,52.92,0,0,0-36.63-50.25V813.42c0-.17,0-.33,0-.5-.75-32.57-1.55-66.24-10.9-101.32-21.29-79.77-67.48-123.82-154.41-147.28-2.4-.64-5.5-1-7.64-2.19-1.8-1-3.07-3.89-4.11-5.59l-54.77-88.91A72.25,72.25,0,0,0,175.6,435L162.48,265.37c-3.09-39.56-33.57-69.45-70.9-69.54Z"/></clipPath><clipPath id="clip-path-2" transform="translate(12.3 9.61)"><path class="cls-1" d="M629.93,982.19V905.76A10.88,10.88,0,0,1,640.68,895h242a10.89,10.89,0,0,1,10.75,10.73v76.43a10.89,10.89,0,0,1-10.75,10.73h-242a10.88,10.88,0,0,1-10.75-10.73m261.7-294.07L980.41,544a73,73,0,0,0-23.86-100.27,73.6,73.6,0,0,0-13.1-6.36l13.07-168.71c1.19-15.25,11.55-30.71,29.05-30.75h0c15.41,0,27.9,13,29.06,30.33l20.14,299.83c2.11,59.54-14.17,74.32-53.43,109.93l-.8.73c-4.84,4.38-10.86,9.51-17.21,14.95C920.94,730,856.79,784.76,856.79,849.78V853H666.54V813.66c.71-30,1.45-61.07,9.5-91.21,14.48-54.24,41.23-95,124.76-117.53l1.36-.36c16.05-4.34,24.24-8.09,35.2-25.95l54.82-89a30.44,30.44,0,0,1,19.06-13.76,31.52,31.52,0,0,1,8.78-.82,1.62,1.62,0,0,0,.31,0,30.83,30.83,0,0,1,24.27,46.84L855.81,666.05a21,21,0,1,0,35.82,22.07m93.84-492.29c-37.32.09-67.8,30-70.89,69.55L901.44,435a72.19,72.19,0,0,0-45.09,32.65l-54.83,89c-1,1.69-2.29,4.53-4.09,5.56-2.15,1.23-5.23,1.54-7.62,2.18-86.93,23.47-133.12,67.52-154.43,147.3-9.35,35.07-10.14,68.74-10.91,101.31,0,.17,0,.34,0,.5V855.5a52.91,52.91,0,0,0-36.61,50.26v76.43A52.87,52.87,0,0,0,640.67,1035h242a52.88,52.88,0,0,0,52.82-52.81V905.76a52.92,52.92,0,0,0-36.62-50.26v-5.72c0-45.63,55.28-92.87,91.84-124.12,6.61-5.64,12.83-11,18.13-15.76l.82-.74c42.22-38.29,70.1-63.59,67.2-143,0-.21,0-.42,0-.63l-20.15-300.15c-2.67-39.69-33.2-69.59-71-69.59Z"/></clipPath><clipPath id="clip-path-3" transform="translate(12.3 9.61)"><path class="cls-1" d="M609.55,332.37a148,148,0,0,1,76.52,129.15v12.21H391V461.52c0-53.77,29.69-103.25,76.53-129.15a130.91,130.91,0,0,0,142,0M280.67,370.85c0-53.77,29.68-103.23,76.52-129.14a130.64,130.64,0,0,0,56.18,20.08,130.92,130.92,0,0,0,21.75,41,191.06,191.06,0,0,0-69.06,80.28H280.67Zm361.27-68.06a130.94,130.94,0,0,0,21.76-41,130.73,130.73,0,0,0,56.18-20.08c46.86,25.92,76.57,75.38,76.57,129.14v12.22H711a191,191,0,0,0-69.06-80.28M449.25,221.93a89.28,89.28,0,1,1,89.28,89.31,89.36,89.36,0,0,1-89.28-89.31M338.93,131.32a89.33,89.33,0,0,1,170.41-37.4C452.13,107,409,157.4,407.28,218.06a89.38,89.38,0,0,1-68.35-86.74M567.74,93.93a89.29,89.29,0,1,1,102,124.14,131.53,131.53,0,0,0-102-124.14m-29.19-34A131.3,131.3,0,0,0,428.2,0C355.77,0,296.85,58.91,296.85,131.32a130.71,130.71,0,0,0,27.93,80.82c-53.12,34.74-86.18,94.34-86.18,158.71v33.26a21,21,0,0,0,21,21H352.5a187.76,187.76,0,0,0-3.59,36.37v33.27a21,21,0,0,0,21,21H707.1a21,21,0,0,0,21-21V461.52a187.75,187.75,0,0,0-3.57-36.37h92.93a21,21,0,0,0,21-21V370.85c0-64.37-33.09-124-86.24-158.71a130.73,130.73,0,0,0,27.92-80.82C780.2,58.91,721.27,0,648.84,0A131.28,131.28,0,0,0,538.55,59.89"/></clipPath><clipPath id="clip-path-4" transform="translate(12.3 9.61)"><path class="cls-1" d="M6.51,472.73v.12a21.09,21.09,0,1,0,0-.12"/></clipPath></defs><g id="Шар_2" data-name="Шар 2"><g id="Шар_1-2" data-name="Шар 1"><path class="cls-1" d="M183.65,982.19V905.76A10.88,10.88,0,0,1,194.39,895h242a10.88,10.88,0,0,1,10.74,10.73v76.43a10.75,10.75,0,0,1-10.74,10.73h-242a10.88,10.88,0,0,1-10.74-10.73M91.43,195.83c-37.85,0-68.37,29.9-71,69.59l-7.5,111.71a21,21,0,1,0,42,2.82l7.51-111.72C63.54,250.94,76,237.9,91.44,237.9h0c17.5,0,27.85,15.49,29.05,30.73L133.6,437.36a73.84,73.84,0,0,0-13.09,6.36A73,73,0,0,0,96.64,544l88.79,144.15a21,21,0,0,0,35.83-22.07L132.48,521.92a30.74,30.74,0,0,1,33.34-46,30.45,30.45,0,0,1,19.07,13.79l54.79,88.92c11,17.88,19.17,21.64,35.21,26l1.39.37c83.51,22.53,110.27,63.28,124.75,117.5,8,30.16,8.78,61.2,9.49,91.23V853H220.27v-3.17c0-65-64.14-119.82-106.58-156.11-6.36-5.44-12.37-10.57-17.2-14.93l-.81-.75c-39.33-35.67-55.61-50.45-53.42-110.25a21,21,0,0,0-42-1.54c-2.9,79.37,25,104.67,67.2,143l.82.75c5.29,4.78,11.51,10.1,18.11,15.75,36.58,31.25,91.85,78.49,91.85,124.12v5.72a52.9,52.9,0,0,0-36.62,50.25v76.43A52.88,52.88,0,0,0,194.39,1035h242a52.88,52.88,0,0,0,52.82-52.81V905.75a52.92,52.92,0,0,0-36.63-50.25V813.42c0-.17,0-.33,0-.5-.75-32.57-1.55-66.24-10.9-101.32-21.29-79.77-67.48-123.82-154.41-147.28-2.4-.64-5.5-1-7.64-2.19-1.8-1-3.07-3.89-4.11-5.59l-54.77-88.91A72.25,72.25,0,0,0,175.6,435L162.48,265.37c-3.09-39.56-33.57-69.45-70.9-69.54Z" transform="translate(12.3 9.61)"/><g class="cls-2"><rect class="cls-1" y="195.83" width="511.12" height="858.37"/></g><path class="cls-1" d="M629.93,982.19V905.76A10.88,10.88,0,0,1,640.68,895h242a10.89,10.89,0,0,1,10.75,10.73v76.43a10.89,10.89,0,0,1-10.75,10.73h-242a10.88,10.88,0,0,1-10.75-10.73m261.7-294.07L980.41,544a73,73,0,0,0-23.86-100.27,73.6,73.6,0,0,0-13.1-6.36l13.07-168.71c1.19-15.25,11.55-30.71,29.05-30.75h0c15.41,0,27.9,13,29.06,30.33l20.14,299.83c2.11,59.54-14.17,74.32-53.43,109.93l-.8.73c-4.84,4.38-10.86,9.51-17.21,14.95C920.94,730,856.79,784.76,856.79,849.78V853H666.54V813.66c.71-30,1.45-61.07,9.5-91.21,14.48-54.24,41.23-95,124.76-117.53l1.36-.36c16.05-4.34,24.24-8.09,35.2-25.95l54.82-89a30.44,30.44,0,0,1,19.06-13.76,31.52,31.52,0,0,1,8.78-.82,1.62,1.62,0,0,0,.31,0,30.83,30.83,0,0,1,24.27,46.84L855.81,666.05a21,21,0,1,0,35.82,22.07m93.84-492.29c-37.32.09-67.8,30-70.89,69.55L901.44,435a72.19,72.19,0,0,0-45.09,32.65l-54.83,89c-1,1.69-2.29,4.53-4.09,5.56-2.15,1.23-5.23,1.54-7.62,2.18-86.93,23.47-133.12,67.52-154.43,147.3-9.35,35.07-10.14,68.74-10.91,101.31,0,.17,0,.34,0,.5V855.5a52.91,52.91,0,0,0-36.61,50.26v76.43A52.87,52.87,0,0,0,640.67,1035h242a52.88,52.88,0,0,0,52.82-52.81V905.76a52.92,52.92,0,0,0-36.62-50.26v-5.72c0-45.63,55.28-92.87,91.84-124.12,6.61-5.64,12.83-11,18.13-15.76l.82-.74c42.22-38.29,70.1-63.59,67.2-143,0-.21,0-.42,0-.63l-20.15-300.15c-2.67-39.69-33.2-69.59-71-69.59Z" transform="translate(12.3 9.61)"/><g class="cls-3"><rect class="cls-1" x="590.55" y="195.83" width="511.12" height="858.38"/></g><path class="cls-1" d="M609.55,332.37a148,148,0,0,1,76.52,129.15v12.21H391V461.52c0-53.77,29.69-103.25,76.53-129.15a130.91,130.91,0,0,0,142,0M280.67,370.85c0-53.77,29.68-103.23,76.52-129.14a130.64,130.64,0,0,0,56.18,20.08,130.92,130.92,0,0,0,21.75,41,191.06,191.06,0,0,0-69.06,80.28H280.67Zm361.27-68.06a130.94,130.94,0,0,0,21.76-41,130.73,130.73,0,0,0,56.18-20.08c46.86,25.92,76.57,75.38,76.57,129.14v12.22H711a191,191,0,0,0-69.06-80.28M449.25,221.93a89.28,89.28,0,1,1,89.28,89.31,89.36,89.36,0,0,1-89.28-89.31M338.93,131.32a89.33,89.33,0,0,1,170.41-37.4C452.13,107,409,157.4,407.28,218.06a89.38,89.38,0,0,1-68.35-86.74M567.74,93.93a89.29,89.29,0,1,1,102,124.14,131.53,131.53,0,0,0-102-124.14m-29.19-34A131.3,131.3,0,0,0,428.2,0C355.77,0,296.85,58.91,296.85,131.32a130.71,130.71,0,0,0,27.93,80.82c-53.12,34.74-86.18,94.34-86.18,158.71v33.26a21,21,0,0,0,21,21H352.5a187.76,187.76,0,0,0-3.59,36.37v33.27a21,21,0,0,0,21,21H707.1a21,21,0,0,0,21-21V461.52a187.75,187.75,0,0,0-3.57-36.37h92.93a21,21,0,0,0,21-21V370.85c0-64.37-33.09-124-86.24-158.71a130.73,130.73,0,0,0,27.92-80.82C780.2,58.91,721.27,0,648.84,0A131.28,131.28,0,0,0,538.55,59.89" transform="translate(12.3 9.61)"/><g class="cls-4"><rect class="cls-1" x="241.29" width="619.14" height="535.04"/></g><path class="cls-1" d="M6.51,472.73v.12a21.09,21.09,0,1,0,0-.12" transform="translate(12.3 9.61)"/><g class="cls-5"><rect class="cls-1" x="9.2" y="451.7" width="61.28" height="61.34"/></g></g></g></svg>